<svg width="35" height="35" viewBox="0 0 35 35" fill="none" xmlns="http://www.w3.org/2000/svg">
<path d="M15.209 29.0558L20.4035 26.8508C20.4983 27.4894 20.3784 28.1414 20.0627 28.7045C19.747 29.2676 19.2532 29.71 18.659 29.9622C18.0647 30.2145 17.4036 30.2623 16.7792 30.0983C16.1548 29.9343 15.6025 29.5676 15.209 29.0558ZM23.1306 3.05374C26.1727 4.71624 28.4565 6.84978 29.9585 9.45145C31.4606 12.0531 32.1679 15.0981 32.0862 18.5631C32.0795 18.8532 31.9578 19.1287 31.7479 19.329C31.5379 19.5294 31.2571 19.6381 30.967 19.6313C30.6769 19.6246 30.4014 19.5029 30.2011 19.2929C30.0007 19.083 29.892 18.8022 29.8987 18.5121C29.9717 15.4321 29.3562 12.7837 28.0642 10.5452C26.7721 8.30666 24.7844 6.4502 22.0821 4.97437C21.8274 4.83513 21.6384 4.60042 21.5568 4.32187C21.4752 4.04332 21.5075 3.74375 21.6468 3.48906C21.786 3.23436 22.0207 3.04542 22.2993 2.96378C22.5778 2.88214 22.8774 2.9145 23.1321 3.05374M9.78833 9.50103C11.7949 8.60501 14.0707 8.52162 16.1375 9.26839C18.2043 10.0152 19.9012 11.5339 20.8717 13.5056L21.0146 13.8119L22.8929 18.0279L25.3692 20.1717C25.5048 20.2883 25.6215 20.4254 25.7571 20.6456L25.8431 20.8119C25.9403 21.0308 25.9933 21.2668 25.9991 21.5063C26.005 21.7458 25.9636 21.9841 25.8774 22.2075C25.7911 22.431 25.6616 22.6353 25.4963 22.8087C25.3311 22.9821 25.1332 23.1212 24.9142 23.2181L9.8525 29.8812C9.57499 30.0041 9.27119 30.0557 8.96867 30.0314C8.66616 30.0071 8.37449 29.9077 8.12014 29.7421C7.86578 29.5766 7.65679 29.3501 7.51212 29.0833C7.36744 28.8165 7.29167 28.5179 7.29167 28.2144L7.29021 24.7975L5.47896 20.7258C5.02323 19.7062 4.77313 18.6068 4.74299 17.4904C4.71284 16.374 4.90323 15.2626 5.30327 14.2199C5.7033 13.1772 6.30512 12.2237 7.07424 11.414C7.84336 10.6042 8.76468 9.95416 9.78542 9.50103M7.47542 19.8377L9.47625 24.3337V27.6544L23.4996 21.4492L21.089 19.3637L19.0225 14.7219L18.8985 14.4565C18.1759 12.9965 16.9159 11.8732 15.383 11.322C13.8501 10.7709 12.1633 10.8348 10.6765 11.5004C9.91779 11.8364 9.23292 12.3189 8.66115 12.9202C8.08939 13.5214 7.64196 14.2297 7.34456 15.0043C7.04716 15.7789 6.90562 16.6046 6.92808 17.4341C6.95053 18.2635 7.13654 19.0803 7.47542 19.8377ZM22.7835 8.3052C24.1938 9.07374 25.324 10.1923 26.161 11.6433C26.9981 13.0944 27.4021 14.6329 27.3627 16.2371C27.3557 16.5272 27.2338 16.8026 27.0238 17.0028C26.8138 17.203 26.5328 17.3115 26.2427 17.3046C25.9526 17.2976 25.6772 17.1757 25.477 16.9657C25.2768 16.7556 25.1682 16.4747 25.1752 16.1846C25.2044 14.9858 24.9054 13.844 24.2667 12.7371C23.6279 11.6287 22.7879 10.7975 21.7365 10.2258C21.4818 10.087 21.2927 9.85263 21.2108 9.57436C21.1288 9.29608 21.1608 8.99666 21.2997 8.74197C21.4385 8.48728 21.6729 8.29818 21.9512 8.21627C22.2294 8.13436 22.5289 8.16635 22.7835 8.3052Z" fill="white"/>
</svg>
